<?xml version="1.0" encoding="UTF-8"?>
<svg version="1.1" xmlns="http://www.w3.org/2000/svg" width="1024" height="1024">
<path d="M0 0 C337.92 0 675.84 0 1024 0 C1024 337.92 1024 675.84 1024 1024 C686.08 1024 348.16 1024 0 1024 C0 686.08 0 348.16 0 0 Z " fill="none" transform="translate(0,0)"/>
<path d="M0 0 C19.22658504 16.65011183 30.56379168 38.08011612 33.7109375 63.34765625 C33.98377002 68.45377278 33.98621586 73.55346948 33.97163391 78.66529846 C33.97466023 80.18319588 33.9785521 81.70109178 33.98322648 83.21898502 C33.99345198 87.35908367 33.99133874 91.49909519 33.98704588 95.63920081 C33.98456895 100.11558109 33.99360436 104.59194092 34.00108337 109.0683136 C34.01380194 117.8227749 34.01562793 126.57720548 34.01328311 135.33167446 C34.01149796 142.44378048 34.01325379 149.5558772 34.01750755 156.6679821 C34.01810274 157.68127227 34.01869793 158.69456243 34.01931116 159.73855836 C34.02052292 161.79710476 34.02173705 163.85565116 34.02295353 165.91419756 C34.0338164 185.19417735 34.03167149 204.47413963 34.02556869 223.7541204 C34.02039077 241.40497001 34.03168023 259.05576458 34.05066691 276.7066033 C34.07001643 294.83353182 34.07830702 312.96043427 34.07454365 331.0873732 C34.07262848 341.26344774 34.07515063 351.43947533 34.08925819 361.61554146 C34.10113559 370.27020398 34.10261737 378.92479058 34.09046803 387.57945407 C34.08455596 391.9970648 34.08354408 396.41453639 34.09547043 400.83213806 C34.1062492 404.8713791 34.10332253 408.91036348 34.08920874 412.94959211 C34.08653975 414.41495662 34.08899662 415.88034075 34.09694461 417.34568615 C34.10696088 419.32912732 34.09689161 421.31264016 34.08566761 423.29607487 C34.08572263 424.40025196 34.08577764 425.50442906 34.08583432 426.64206606 C33.7109375 429.34765625 33.7109375 429.34765625 32.33057547 431.20211029 C30.06232588 432.80640965 28.44813092 432.72790274 25.68302917 432.7353363 C24.12481697 432.75019325 24.12481697 432.75019325 22.53512573 432.76535034 C21.39584625 432.76084869 20.25656677 432.75634705 19.08276367 432.75170898 C17.28239906 432.76200386 17.28239906 432.76200386 15.44566345 432.77250671 C12.15196425 432.78768989 8.85883015 432.78926339 5.56513762 432.78356433 C2.81427474 432.78047569 0.06346318 432.78656161 -2.68739241 432.79260308 C-9.17974048 432.80665862 -15.67195702 432.80507984 -22.16430664 432.79370117 C-28.85644788 432.7822313 -35.54818783 432.79627383 -42.24027616 432.82309765 C-47.98903148 432.84527547 -53.73766104 432.85188701 -59.4864561 432.84602123 C-62.91842957 432.84265386 -66.3501461 432.8450511 -69.78208351 432.86227226 C-73.61259437 432.87714073 -77.44222195 432.86653325 -81.27270508 432.84936523 C-82.40591187 432.8590332 -83.53911865 432.86870117 -84.70666504 432.87866211 C-90.86209005 432.82086094 -94.65418009 432.5572452 -99.2890625 428.34765625 C-101.38365031 425.20577453 -101.53943516 424.49912289 -101.54239559 420.92307472 C-101.54801099 420.01246902 -101.55362638 419.10186332 -101.55941194 418.16366351 C-101.55543085 417.16184113 -101.55144976 416.16001876 -101.54734802 415.12783813 C-101.55102373 414.0645565 -101.55469943 413.00127486 -101.55848652 411.90577257 C-101.56850701 408.32466617 -101.56430756 404.74371383 -101.56030273 401.16259766 C-101.56468765 398.60199823 -101.56998895 396.04140023 -101.57614136 393.48080444 C-101.58766403 387.95602007 -101.59329494 382.43127805 -101.59402275 376.9064827 C-101.59534835 368.90436753 -101.61046115 360.90232235 -101.62951792 352.90023188 C-101.66038085 339.89915414 -101.68453308 326.89807461 -101.70239258 313.89697266 C-101.70346526 313.11853813 -101.70453794 312.3401036 -101.70564312 311.53808014 C-101.7174481 302.86494723 -101.7276541 294.1918136 -101.73608398 285.51867676 C-101.73915752 282.37980141 -101.74224639 279.24092608 -101.74536133 276.10205078 C-101.74612667 275.32759635 -101.74689201 274.55314192 -101.74768054 273.75521918 C-101.7607885 260.81526022 -101.78546861 247.87535159 -101.81910473 234.93542993 C-101.83933981 226.96076073 -101.84969171 218.9861994 -101.84711552 211.01150434 C-101.84595255 204.88773547 -101.86017596 198.76408929 -101.87992477 192.64035416 C-101.88550693 190.13667917 -101.88602558 187.63298675 -101.88098717 185.12931061 C-101.85385691 170.06278744 -102.04202194 156.35262289 -108.4140625 142.41015625 C-108.7133667 141.74322754 -109.0126709 141.07629883 -109.32104492 140.38916016 C-113.22821873 131.96833778 -118.31475049 124.3280086 -123.83984375 116.890625 C-139.26049141 96.10881296 -145.6798844 73.09356622 -142.6015625 47.16015625 C-139.46364441 27.84989109 -128.67107184 10.38635589 -113.26953125 -1.53125 C-79.08671386 -25.85794704 -33.24675181 -26.55185795 0 0 Z " fill="#F3F2F2" transform="translate(632.2890625,275.65234375)"/>
<path d="M0 0 C1.9089782 -0.01407143 1.9089782 -0.01407143 3.85652161 -0.02842712 C5.24639548 -0.01793639 6.63626296 -0.00656573 8.02612305 0.00561523 C9.46420871 0.00546005 10.90229479 0.0039678 12.34037781 0.00120544 C15.36089491 -0.00017963 18.38093794 0.01237984 21.40136719 0.03515625 C25.22936902 0.0632611 29.0565668 0.06088248 32.88462543 0.04806614 C35.86112531 0.04102097 38.83744763 0.04900185 41.81392479 0.06132317 C43.22218323 0.06577262 44.63046123 0.06623292 46.03872108 0.06225777 C71.39975749 0.02424295 94.68533577 8.27002328 113.16967773 25.9387207 C126.26934741 39.10006491 136.82465495 60.28988172 136.85956287 79.07489204 C136.86402072 80.19071698 136.86847856 81.30654192 136.87307149 82.45617974 C136.87288713 83.67689073 136.87270277 84.89760172 136.87251282 86.15530396 C136.87618951 87.45602903 136.87986619 88.75675411 136.8836543 90.0968951 C136.89365357 93.70550854 136.8973877 97.31410535 136.90004361 100.92273068 C136.90395247 104.81504091 136.91352996 108.70733804 136.92225647 112.59963989 C136.94199776 121.99475206 136.95208118 131.38986528 136.96098426 140.78499299 C136.96536837 145.20771531 136.97073462 149.63043643 136.97597313 154.05315781 C136.99297815 168.7497972 137.00747524 183.44643585 137.01472187 198.14308357 C137.01663178 201.95484544 137.01855212 205.7666073 137.02050781 209.57836914 C137.02099155 210.5257702 137.02147529 211.47317126 137.02197369 212.44928144 C137.03028517 227.81790741 137.05564411 243.18645583 137.08808849 258.55504788 C137.12111339 274.32680531 137.13916622 290.09852323 137.14236611 305.87031543 C137.14453475 314.72860649 137.15333571 323.58678423 137.17882729 332.44504166 C137.2004714 339.98365369 137.20861564 347.52212487 137.1988605 355.06076445 C137.19429829 358.90928738 137.19631274 362.7575193 137.21562195 366.60600281 C137.23634259 370.77156988 137.22632558 374.93648407 137.21308899 379.1020813 C137.22405824 380.32725373 137.23502748 381.55242617 137.24632913 382.81472504 C137.23774824 383.92533449 137.22916734 385.03594393 137.22032642 386.18020821 C137.22130323 387.1423672 137.22228004 388.1045262 137.22328645 389.09584153 C136.7253418 391.50170898 136.7253418 391.50170898 134.83622044 393.26125896 C129.88930106 396.16829783 125.7161598 396.80865448 120.0300293 396.80249023 C118.91875671 396.81095726 118.91875671 396.81095726 117.78503418 396.81959534 C115.38992226 396.83159718 112.99545225 396.82537848 110.6003418 396.81420898 C109.78511047 396.81205383 108.96987915 396.80989868 108.12994385 396.80767822 C78.10079247 396.67963634 50.29892265 390.06778109 26.7253418 370.50170898 C25.86424805 369.80432617 25.0031543 369.10694336 24.1159668 368.38842773 C10.23546053 356.59861884 0.12765287 340.48010284 -5.7121582 323.31420898 C-6.06455566 322.28324097 -6.06455566 322.28324097 -6.42407227 321.23144531 C-9.77670047 310.62596475 -10.5728008 299.74841678 -10.54208374 288.69004822 C-10.54661485 287.46894791 -10.55114597 286.2478476 -10.55581439 284.98974425 C-10.56619672 281.64049875 -10.56779956 278.29146999 -10.56542563 274.94222414 C-10.56501421 271.31519677 -10.57608658 267.68820034 -10.58554077 264.06118774 C-10.60207436 256.97426244 -10.60764661 249.88737042 -10.60876553 242.80042743 C-10.60971852 237.04228112 -10.61384126 231.28414573 -10.62016678 225.52600288 C-10.63774909 209.18781999 -10.64700899 192.84966327 -10.64550583 176.51147085 C-10.64542592 175.6327343 -10.64534601 174.75399774 -10.64526367 173.84863281 C-10.64518191 172.96882099 -10.64510015 172.08900916 -10.64501591 171.18253637 C-10.64420122 156.89176327 -10.6633927 142.60109509 -10.69154041 128.31035238 C-10.72023837 113.62427284 -10.73408278 98.93824459 -10.73235285 84.25213629 C-10.73168846 76.0115356 -10.73720404 67.77104531 -10.75870895 59.53046989 C-10.77687889 52.52346914 -10.78130181 45.516629 -10.76769011 38.50961494 C-10.76114251 34.93432109 -10.76110779 31.35933581 -10.77839661 27.78407097 C-10.79692557 23.91274184 -10.78462182 20.04186778 -10.76913452 16.17051697 C-10.77942165 15.03542425 -10.78970877 13.90033152 -10.80030763 12.73084205 C-10.79111004 11.69632646 -10.78191245 10.66181086 -10.77243614 9.59594631 C-10.77287088 8.70229663 -10.77330561 7.80864695 -10.77375352 6.88791698 C-9.53372061 0.95923694 -5.43304108 0.00080725 0 0 Z " fill="#F3F3F3" transform="translate(356.274658203125,357.498291015625)"/>
<path d="M0 0 C0.33 0 0.66 0 1 0 C1.08086376 2.93804996 1.1404283 5.87388075 1.1875 8.8125 C1.21263672 9.64587891 1.23777344 10.47925781 1.26367188 11.33789062 C1.27333984 12.14033203 1.28300781 12.94277344 1.29296875 13.76953125 C1.3086792 14.50792236 1.32438965 15.24631348 1.34057617 16.00708008 C0.91074167 18.52230522 -0.07463062 19.39441516 -2 21 C-2.05420701 18.43721301 -2.09377007 15.87558517 -2.125 13.3125 C-2.15013672 12.2306543 -2.15013672 12.2306543 -2.17578125 11.12695312 C-2.21391569 6.95123219 -1.8789919 3.7505862 0 0 Z " fill="#E8E8E8" transform="translate(348,638)"/>
<path d="M0 0 C0 0.99 0 1.98 0 3 C-0.66 3 -1.32 3 -2 3 C-2.33 3.66 -2.66 4.32 -3 5 C-3.66 4.34 -4.32 3.68 -5 3 C-2.25 0 -2.25 0 0 0 Z M-7 4 C-6.34 4.33 -5.68 4.66 -5 5 C-6.98 7.31 -8.96 9.62 -11 12 C-11.66 11.34 -12.32 10.68 -13 10 C-11.02 8.02 -9.04 6.04 -7 4 Z " fill="#E1E2E1" transform="translate(521,274)"/>
<path d="M0 0 C5.8022175 -0.36263859 9.63999211 0.74315457 15 3 C14.67 3.66 14.34 4.32 14 5 C13.40832031 4.86722656 12.81664062 4.73445313 12.20703125 4.59765625 C8.14553475 3.68994822 4.08625829 2.7908887 0 2 C0 1.34 0 0.68 0 0 Z " fill="#111111" transform="translate(426,359)"/>
<path d="M0 0 C1.00289063 0.10183594 2.00578125 0.20367188 3.0390625 0.30859375 C3.80992187 0.39238281 4.58078125 0.47617187 5.375 0.5625 C5.375 1.5525 5.375 2.5425 5.375 3.5625 C3.95749437 3.44740339 2.54098831 3.31996342 1.125 3.1875 C0.33609375 3.11789062 -0.4528125 3.04828125 -1.265625 2.9765625 C-3.710877 2.54742887 -5.47336903 1.77649362 -7.625 0.5625 C-4.89657939 -0.80171031 -3.01546682 -0.31557211 0 0 Z " fill="#E8E8E7" transform="translate(432.625,748.4375)"/>
<path d="M0 0 C1.33333333 0.66666667 2.66666667 1.33333333 4 2 C4.969375 2.433125 5.93875 2.86625 6.9375 3.3125 C10.24645424 5.13580132 12.45489953 7.23033184 15 10 C14.67 10.66 14.34 11.32 14 12 C12.03713202 10.56836693 10.07978093 9.13010149 8.125 7.6875 C7.56941406 7.28337891 7.01382812 6.87925781 6.44140625 6.46289062 C3.7195934 4.44612569 1.89965896 2.84948844 0 0 Z " fill="#ECECEB" transform="translate(381,725)"/>
<path d="M0 0 C0.33 1.32 0.66 2.64 1 4 C0.01 4.495 0.01 4.495 -1 5 C-0.79375 5.556875 -0.5875 6.11375 -0.375 6.6875 C0.10695211 9.659538 -0.73434972 11.31979941 -2 14 C-2.66 14 -3.32 14 -4 14 C-3.46148032 8.72250715 -2.22656164 4.74354436 0 0 Z " fill="#E6E6E6" transform="translate(495,306)"/>
<path d="M0 0 C1.50560497 2.85410334 2.63216796 5.68124642 3.625 8.75 C3.88539063 9.54921875 4.14578125 10.3484375 4.4140625 11.171875 C4.60742188 11.77515625 4.80078125 12.3784375 5 13 C2 12 2 12 0.25 9.875 C-1.34903493 6.19721965 -0.83249295 3.85974006 0 0 Z " fill="#0E0E0E" transform="translate(349,675)"/>
<path d="M0 0 C1.65 0 3.3 0 5 0 C5 0.66 5 1.32 5 2 C1.04 3.32 -2.92 4.64 -7 6 C-7.33 5.01 -7.66 4.02 -8 3 C-5.36 2.67 -2.72 2.34 0 2 C0 1.34 0 0.68 0 0 Z " fill="#151515" transform="translate(545,258)"/>
<path d="M0 0 C2.63246736 0.75213353 5.10967129 1.67200198 7.625 2.75 C7.295 3.41 6.965 4.07 6.625 4.75 C0.685 3.265 0.685 3.265 -5.375 1.75 C-2.375 -0.25 -2.375 -0.25 0 0 Z " fill="#181818" transform="translate(596.375,256.25)"/>
</svg>
