<?xml version="1.0" encoding="UTF-8"?>
<svg version="1.1" xmlns="http://www.w3.org/2000/svg" width="1024" height="1024">
<path d="M0 0 C337.92 0 675.84 0 1024 0 C1024 337.92 1024 675.84 1024 1024 C686.08 1024 348.16 1024 0 1024 C0 686.08 0 348.16 0 0 Z " fill="none" transform="translate(0,0)"/>
<path d="M0 0 C20.39105975 15.79847872 32.94114329 36.83567027 37.03515625 62.3515625 C37.42662889 67.54550562 37.45062493 72.7220126 37.42956543 77.92749023 C37.43446641 79.44910313 37.44066174 80.97071231 37.44802332 82.49231529 C37.46429087 86.63353537 37.46213222 90.77456345 37.45664835 94.91580415 C37.45396201 99.39699224 37.46853914 103.87813098 37.48074341 108.35929871 C37.501726 117.11984704 37.50634263 125.88032909 37.50455552 134.6408996 C37.5032453 141.75961098 37.50706526 148.87830177 37.51448059 155.99700928 C37.51657985 158.0512975 37.51867745 160.10558573 37.52077341 162.15987396 C37.52181694 163.1824401 37.52286047 164.20500624 37.52393562 165.25855923 C37.54280597 184.56391947 37.54179644 203.86924164 37.53496629 223.17460728 C37.52938214 240.83950686 37.55025904 258.50426182 37.58332676 276.16912758 C37.61704008 294.31987144 37.63223578 312.47054592 37.62760973 330.62132168 C37.62536408 340.80699875 37.63062351 350.99254183 37.65550232 361.17819214 C37.67648388 369.84154528 37.6801378 378.5046908 37.66120273 387.16805238 C37.65202892 391.58816371 37.65095249 396.00788756 37.67155838 400.42796898 C37.69020794 404.47299345 37.68583349 408.51731137 37.66301256 412.56230843 C37.65881179 414.0263218 37.66307637 415.49038873 37.6766085 416.95434558 C37.78252871 429.24910686 37.78252871 429.24910686 34.8283844 433.21436787 C31.78255919 435.54483318 30.50454876 436.10273407 26.7220459 436.10673523 C25.14492073 436.12994591 25.14492073 436.12994591 23.53593445 436.15362549 C22.39292374 436.13990906 21.24991302 436.12619263 20.07226562 436.11206055 C18.25442314 436.12542198 18.25442314 436.12542198 16.39985657 436.13905334 C13.08299895 436.15669641 9.76839099 436.14744339 6.45170784 436.12458396 C2.97735121 436.10563876 -0.49692942 436.11683085 -3.97131348 436.12348938 C-9.80544313 436.12982601 -15.63911165 436.1115813 -21.47314453 436.07885742 C-28.2131869 436.04136366 -34.95235579 436.0431423 -41.69244432 436.0658986 C-48.18253893 436.08686469 -54.67231144 436.07956417 -61.16239929 436.05957985 C-63.92153654 436.05160388 -66.68040058 436.05357298 -69.43952942 436.06360435 C-73.29400946 436.07613685 -77.147581 436.04737886 -81.00195312 436.0144043 C-82.71646919 436.02722946 -82.71646919 436.02722946 -84.46562195 436.04031372 C-86.04274712 436.0169973 -86.04274712 436.0169973 -87.6517334 435.99320984 C-89.01776829 435.98843392 -89.01776829 435.98843392 -90.41139984 435.98356152 C-94.28979913 435.02362481 -95.65148513 433.60342591 -97.96484375 430.3515625 C-98.68391607 426.92841202 -98.6250647 423.57742898 -98.5771637 420.0901947 C-98.58546382 418.52461873 -98.58546382 418.52461873 -98.59393162 416.92741495 C-98.60652898 413.42378572 -98.58350241 409.92128973 -98.56079102 406.41772461 C-98.56269455 403.90759523 -98.56684913 401.3974667 -98.5730896 398.88734436 C-98.58189292 393.47599399 -98.5756868 388.0649864 -98.55642891 382.65366936 C-98.52888943 374.80811851 -98.53278753 366.96281958 -98.54501473 359.11724121 C-98.56441664 346.35930306 -98.56446584 333.60144787 -98.54956055 320.84350586 C-98.54867441 320.08000096 -98.54778828 319.31649607 -98.54687529 318.52985466 C-98.54324257 315.43769733 -98.53952525 312.34554012 -98.53570873 309.25338301 C-98.52527764 300.77398549 -98.51701095 292.29458696 -98.51049805 283.81518555 C-98.50961569 282.67815078 -98.50961569 282.67815078 -98.50871552 281.51814561 C-98.49939765 268.82557208 -98.50597788 256.13304799 -98.52280849 243.44048315 C-98.53234371 235.62838933 -98.52739291 227.81656379 -98.50304078 220.00450063 C-98.48525637 213.99422262 -98.4878683 207.98412549 -98.49747849 201.97382164 C-98.49800916 199.52628483 -98.49179405 197.07873468 -98.4779377 194.63123703 C-98.32495822 166.20383899 -103.25258821 141.49233638 -121.33984375 118.7890625 C-129.59092531 108.03722506 -135.7455551 94.74655473 -137.96484375 81.3515625 C-138.1453125 80.27519531 -138.32578125 79.19882812 -138.51171875 78.08984375 C-141.12665603 56.51661121 -137.06914291 35.03447221 -123.96484375 17.3515625 C-121.1206244 13.85098484 -118.12375989 10.56967468 -114.96484375 7.3515625 C-114.30097656 6.66320312 -113.63710938 5.97484375 -112.953125 5.265625 C-82.87824864 -23.72082726 -32.81369718 -23.84275931 0 0 Z " fill="#070707" transform="translate(628.96484375,270.6484375)"/>
<path d="M0 0 C1.14914886 -0.00930542 2.29829773 -0.01861084 3.48226929 -0.02819824 C4.71353546 -0.01180298 5.94480164 0.00459229 7.21337891 0.02148438 C9.14136826 0.02142395 9.14136826 0.02142395 11.10830688 0.0213623 C13.83035453 0.02301294 16.55157622 0.04163699 19.2734375 0.07324219 C22.7140025 0.11252954 26.15347862 0.11705743 29.59422398 0.11017323 C60.74524059 0.06793852 87.50456971 5.04222516 110.83056641 27.24804688 C128.02973076 45.34410017 135.22318167 66.95889509 135.2053833 91.42631531 C135.20835442 92.70777477 135.21132555 93.98923422 135.2143867 95.30952579 C135.2224139 98.85049459 135.22424386 102.39144307 135.22498417 105.9324199 C135.22684204 109.75722868 135.23439266 113.58202709 135.24111938 117.40682983 C135.25466915 125.75972977 135.26072117 134.11262488 135.26513004 142.46553397 C135.26789614 147.68119963 135.27213397 152.89686344 135.27663422 158.11252785 C135.28881868 172.55622459 135.29912209 186.99991986 135.30250931 201.44362164 C135.30283866 202.82860695 135.30283866 202.82860695 135.30317466 204.24157177 C135.30339294 205.1670684 135.30361122 206.09256502 135.30383611 207.04610699 C135.30427957 208.92144438 135.30472613 210.79678176 135.30517578 212.67211914 C135.30550793 214.06745943 135.30550793 214.06745943 135.30584678 215.49098841 C135.3097997 230.58323025 135.32727243 245.67542395 135.3505353 260.76764717 C135.37423154 276.26604658 135.38671024 291.76442179 135.38787723 307.26283962 C135.38879455 315.96351391 135.39456202 324.66412534 135.41269684 333.36478233 C135.42807397 340.76820393 135.43323216 348.1715432 135.42495874 355.57497772 C135.42104477 359.3528369 135.42201828 363.13053016 135.43601608 366.90836906 C135.45104113 371.00073483 135.44291149 375.09272459 135.43243408 379.18510437 C135.44451869 380.98187285 135.44451869 380.98187285 135.45684743 382.81493968 C135.45025759 383.91026414 135.44366774 385.00558861 135.4368782 386.13410473 C135.43747529 387.07868925 135.43807238 388.02327378 135.43868756 388.99648207 C134.98912983 392.14642845 133.89272328 394.03413374 132.06494141 396.61523438 C128.60625249 399.19619987 124.95595752 398.90319402 120.75634766 398.95117188 C120.04183945 398.9595961 119.32733124 398.96802032 118.59117126 398.97669983 C116.26969764 398.99639927 113.94898454 398.99640299 111.62744141 398.99023438 C110.8362793 398.98935822 110.04511719 398.98848206 109.22998047 398.98757935 C74.3318095 398.85971967 43.61690874 387.44512267 18.25244141 363.17773438 C-0.85438406 343.22171667 -12.45219943 317.44146153 -12.3361969 289.69004822 C-12.34299357 288.46879905 -12.34979024 287.24754988 -12.35679287 285.98929316 C-12.37234996 282.64414701 -12.3747737 279.29948968 -12.37120974 275.95434296 C-12.37059196 272.33002172 -12.38720701 268.70576992 -12.40138245 265.08148193 C-12.42616917 258.00170433 -12.43454056 250.9220017 -12.43621958 243.8421843 C-12.43764969 238.0893086 -12.44383681 232.33645747 -12.45332146 226.58358955 C-12.47969084 210.25637354 -12.49358537 193.92921642 -12.49133004 177.60197895 C-12.49121017 176.72407053 -12.4910903 175.8461621 -12.4909668 174.94165039 C-12.49084415 174.06266638 -12.49072151 173.18368236 -12.49059515 172.27806247 C-12.48937313 158.00090508 -12.51816101 143.72398401 -12.5603819 129.44689506 C-12.60343927 114.77093975 -12.62419491 100.09509993 -12.62160057 85.41907984 C-12.62060435 77.18567138 -12.62886097 68.95251158 -12.66113472 60.71916008 C-12.68840347 53.71837231 -12.69501291 46.7179463 -12.67460645 39.71712851 C-12.66479174 36.14561342 -12.664707 32.57479314 -12.6906662 29.00334358 C-12.71849962 25.13442727 -12.69998683 21.26653303 -12.67677307 17.39756775 C-12.69220376 16.26606999 -12.70763445 15.13457223 -12.72353274 13.96878666 C-12.6252536 6.5895817 -12.6252536 6.5895817 -10.6514771 3.80320418 C-7.26196369 0.83473364 -4.42921767 -0.00906052 0 0 Z " fill="#070707" transform="translate(356.93505859375,356.384765625)"/>
<path d="M0 0 C6.4 -0.36923077 6.4 -0.36923077 9.4375 1.5 C9.953125 1.995 10.46875 2.49 11 3 C10.67 3.66 10.34 4.32 10 5 C5.05 3.02 5.05 3.02 0 1 C0 0.67 0 0.34 0 0 Z " fill="#0E0D0E" transform="translate(416,745)"/>
<path d="M0 0 C2.56616632 3.84924948 2.55097676 6.4349304 3 11 C2.34 11 1.68 11 1 11 C-1.125 3.375 -1.125 3.375 0 0 Z " fill="#0E0E0E" transform="translate(350,671)"/>
</svg>
